<?xml version="1.0" encoding="utf-8"?>
<!-- Generator: Adobe Illustrator 25.4.1, SVG Export Plug-In . SVG Version: 6.00 Build 0)  -->
<svg version="1.1" id="Layer_1" xmlns="http://www.w3.org/2000/svg" xmlns:xlink="http://www.w3.org/1999/xlink" x="0px" y="0px"
	 viewBox="0 0 1280 1024" style="enable-background:new 0 0 1280 1024;" xml:space="preserve">
<g>
	<g>
		<path d="M503.1,769.2V535.3h-53.5v-10.2h53.5v-12.7h-53.5v-10.2h53.5v-12.7h-53.5v-10h53.5v-61.8h10.2v351.6H503.1z M526,769.2
			V417.6h10v351.6H526z M548.7,769.2V417.6h10.2v351.6H548.7z"/>
		<path d="M560,770.3h-12.3V416.6H560V770.3z M549.8,768.2h8.1V418.7h-8.1V768.2z M537,770.3h-12V416.6h12V770.3z M527.1,768.2h7.9
			V418.7h-7.9V768.2z M514.3,770.3h-12.3V536.3h-53.5v-12.3h53.5v-10.7h-53.5v-12.3h53.5v-10.7h-53.5v-12h53.5v-61.8h12.3V770.3z
			 M504.1,768.2h8.1V418.7h-8.1v61.8h-53.5v7.9h53.5v14.8h-53.5v8.1h53.5v14.8h-53.5v8.1h53.5V768.2z"/>
	</g>
	<g>
		<path d="M621.5,481.1c0.3-12,3.7-23.2,10.2-33.4c6.2-8.6,14.4-16.1,24.6-22.2c17.6-9.4,38-14.4,61.2-14.8
			c23.2,0.5,43.5,5.4,61.2,14.8c10.2,6.2,18.4,13.6,24.6,22.2c6.6,10.2,10,21.3,10.2,33.4v224.7c-0.2,12-3.6,23.2-10.2,33.4
			c-6.2,8.7-14.4,16.1-24.6,22.2c-17.6,9.4-38,14.4-61.2,14.8c-23.2-0.5-43.5-5.4-61.2-14.8c-10.2-6.2-18.4-13.6-24.6-22.2
			c-6.5-10.2-9.9-21.3-10.2-33.4V481.1z M632.4,705.8c0.2,10.2,3,19.5,8.6,28c5.1,7.4,12,13.7,20.8,19c15.9,8.7,34.4,13.1,55.6,13.4
			c21.2-0.3,39.7-4.8,55.6-13.4c8.8-5.2,15.8-11.6,21.1-19c5.4-8.5,8.3-17.8,8.6-28V481.1c-0.3-10.2-3.2-19.5-8.6-28
			c-5.3-7.4-12.3-13.7-21.1-19c-15.9-8.6-34.4-13.1-55.6-13.4c-21.2,0.3-39.7,4.8-55.6,13.4c-8.6,5.3-15.6,11.6-20.8,19
			c-5.6,8.5-8.4,17.8-8.6,28V705.8z M645.8,705.8c0.2,7.7,2.3,14.8,6.5,21.3c4.2,5.9,9.7,10.9,16.7,15.1c13.6,7.3,29.7,11,48.4,11.3
			c18.7-0.3,34.8-4.1,48.4-11.3c6.9-4.2,12.5-9.2,16.7-15.1c4.2-6.5,6.3-13.6,6.5-21.3V481.1c-0.2-7.7-2.3-14.8-6.5-21.3
			c-4.2-5.9-9.7-10.9-16.7-15.1c-13.6-7.3-29.7-11-48.4-11.3c-18.7,0.3-34.8,4.1-48.4,11.3c-6.9,4.2-12.5,9.2-16.7,15.1
			c-4.2,6.5-6.3,13.6-6.5,21.3V705.8z M656.7,481.1c0.2-5.9,1.8-11.2,4.9-16c3.1-4.5,7.5-8.4,13.2-11.8c11.7-6.5,25.9-9.8,42.6-10
			c16.7,0.2,30.9,3.5,42.6,10c5.7,3.4,10.1,7.3,13.2,11.8c3.2,4.8,4.9,10.1,4.9,16v224.7c0,5.9-1.6,11.2-4.9,16
			c-3.1,4.5-7.5,8.4-13.2,11.8c-11.7,6.5-25.9,9.8-42.6,10c-16.7-0.2-30.9-3.5-42.6-10c-5.7-3.4-10.1-7.3-13.2-11.8
			c-3.1-4.8-4.7-10.1-4.9-16V481.1z M670.1,705.8c0.2,3.4,1.2,6.5,3,9.3c2,2.9,4.9,5.6,8.8,7.9c9.6,5.3,21.4,8,35.4,8.1
			c14.2-0.2,26-2.9,35.4-8.1c3.9-2.3,6.9-4.9,9-7.9c1.7-2.8,2.6-5.9,2.8-9.3V481.1c-0.2-3.4-1.1-6.5-2.8-9.3c-2-2.9-5-5.6-9-7.9
			c-9.4-5.2-21.2-8-35.4-8.1c-14.1,0.2-25.9,2.9-35.4,8.1c-3.9,2.3-6.8,4.9-8.8,7.9c-1.9,2.8-2.9,5.9-3,9.3V705.8z M681,481.1
			c0-1.5,0.4-2.9,1.2-4.2c1.1-1.5,2.9-3.1,5.6-4.6c7.7-4.2,17.6-6.3,29.6-6.5c12.2,0.2,22.2,2.3,29.9,6.5c2.5,1.5,4.2,3.1,5.3,4.6
			c0.8,1.2,1.2,2.6,1.2,4.2v224.7c0,1.5-0.4,2.9-1.2,4.2c-1.1,1.5-2.9,3.1-5.3,4.6c-7.7,4.2-17.7,6.3-29.9,6.5
			c-12-0.2-21.9-2.3-29.6-6.5c-2.6-1.5-4.5-3.1-5.6-4.6c-0.8-1.2-1.2-2.6-1.2-4.2V481.1z"/>
		<path d="M717.4,777.2c-23.3-0.5-44-5.5-61.7-14.9c-10.3-6.2-18.7-13.8-24.9-22.5c-6.6-10.4-10.1-21.8-10.4-33.9V481.1
			c0.3-12.2,3.8-23.6,10.4-33.9c6.3-8.8,14.6-16.3,24.9-22.6c17.7-9.5,38.5-14.5,61.7-15c23.3,0.5,44,5.5,61.7,14.9
			c10.3,6.2,18.7,13.8,24.9,22.5c6.7,10.3,10.2,21.8,10.4,33.9v224.7c-0.2,12.2-3.6,23.6-10.4,33.9c-6.3,8.8-14.6,16.3-24.9,22.6
			C761.3,771.7,740.6,776.8,717.4,777.2z M622.5,481.1v224.7c0.3,11.8,3.7,22.8,10,32.8c6,8.4,14.2,15.8,24.2,21.9
			c17.3,9.3,37.8,14.2,60.6,14.7c22.8-0.5,43.3-5.4,60.6-14.7c10-6,18.1-13.4,24.2-21.9c6.5-9.9,9.8-21,10-32.8V481.1
			c-0.2-11.8-3.5-22.8-10-32.8c-6-8.5-14.2-15.8-24.2-21.9c-17.3-9.3-37.8-14.2-60.6-14.7c-22.8,0.5-43.3,5.4-60.6,14.7
			c-10,6.1-18.1,13.4-24.2,21.9C626.2,458.3,622.8,469.3,622.5,481.1z M717.4,767.3c-21.3-0.3-40.1-4.9-56.1-13.6
			c-8.9-5.3-16-11.8-21.2-19.3c-5.7-8.6-8.6-18.3-8.8-28.6V481.1c0.2-10.4,3.1-20,8.7-28.6c5.3-7.5,12.4-14,21.2-19.3
			c16-8.7,34.9-13.3,56.1-13.6c21.3,0.3,40.1,4.9,56.1,13.6c8.9,5.3,16.1,11.8,21.4,19.3c5.5,8.7,8.4,18.3,8.8,28.6v224.7
			c-0.3,10.4-3.3,20-8.7,28.6c-5.3,7.5-12.5,14-21.4,19.3C757.5,762.4,738.6,766.9,717.4,767.3z M633.4,705.8
			c0.2,9.9,3,19.2,8.4,27.5c5,7.2,11.9,13.5,20.5,18.7c15.6,8.5,34.2,13,55.1,13.3c20.9-0.3,39.4-4.8,55.1-13.3
			c8.6-5.1,15.6-11.4,20.7-18.7c5.2-8.2,8.1-17.5,8.4-27.5V481.1c-0.3-9.9-3.1-19.2-8.4-27.5c-5.1-7.2-12.1-13.5-20.7-18.7
			c-15.6-8.5-34.2-13-55.1-13.3c-20.9,0.3-39.4,4.8-55.1,13.3c-8.4,5.1-15.4,11.4-20.5,18.7c-5.4,8.3-8.2,17.5-8.4,27.4V705.8z
			 M717.4,754.5c-18.8-0.3-35.3-4.2-48.9-11.5c-7.1-4.3-12.8-9.4-17-15.4c-4.3-6.7-6.5-14-6.7-21.9V481.1c0.2-7.9,2.4-15.2,6.6-21.9
			c4.3-6,10-11.2,17-15.4c13.7-7.3,30.2-11.2,48.9-11.5c18.8,0.3,35.2,4.2,48.9,11.5c7.1,4.2,12.8,9.4,17,15.4
			c4.3,6.7,6.5,14,6.7,21.9v224.7c-0.2,7.9-2.4,15.3-6.6,21.9c-4.3,6-10,11.2-17,15.4C752.6,750.3,736.1,754.2,717.4,754.5z
			 M646.8,705.8c0.1,7.5,2.3,14.5,6.3,20.8c4,5.7,9.5,10.7,16.3,14.7c13.3,7.1,29.5,10.9,47.9,11.2c18.4-0.3,34.5-4.1,47.9-11.2
			c6.8-4.1,12.3-9,16.3-14.7c4-6.2,6.1-13.2,6.3-20.7V481.1c-0.2-7.5-2.3-14.5-6.3-20.8c-4-5.7-9.5-10.7-16.3-14.7
			c-13.3-7.1-29.5-10.9-47.9-11.2c-18.4,0.3-34.5,4.1-47.9,11.2c-6.7,4.1-12.3,9-16.3,14.7c-4,6.3-6.1,13.2-6.3,20.7V705.8z
			 M717.4,744.6c-16.8-0.2-31.3-3.5-43.1-10.1c-5.8-3.5-10.4-7.5-13.6-12.1c-3.2-4.9-4.9-10.5-5-16.5V481.1c0.2-6,1.8-11.6,5-16.5
			c3.2-4.6,7.7-8.7,13.5-12.1c11.9-6.6,26.4-10,43.1-10.1c16.8,0.2,31.3,3.6,43.1,10.1c5.8,3.5,10.4,7.5,13.6,12.1
			c3.4,4.9,5,10.5,5,16.6v224.7c0,6.1-1.7,11.6-5,16.6c-3.2,4.6-7.7,8.7-13.5,12.1C748.6,741,734.1,744.4,717.4,744.6z M657.7,481.1
			v224.7c0.1,5.6,1.7,10.8,4.7,15.4c3,4.3,7.3,8.2,12.9,11.5c11.5,6.4,25.7,9.7,42.1,9.8c16.4-0.1,30.6-3.5,42.1-9.8
			c5.5-3.3,9.9-7.2,12.9-11.5c3.1-4.6,4.7-9.8,4.7-15.4V481.1c0-5.6-1.6-10.8-4.7-15.4c-3-4.3-7.3-8.2-12.9-11.5
			c-11.5-6.4-25.7-9.7-42.1-9.8c-16.4,0.2-30.6,3.5-42.1,9.8c-5.5,3.3-9.9,7.2-12.9,11.5C659.4,470.3,657.9,475.5,657.7,481.1z
			 M717.4,732.1c-14.2-0.2-26.3-2.9-35.9-8.2c-4-2.4-7.1-5.2-9.2-8.2c-2-2.9-3-6.2-3.2-9.8l0,0V481.1c0.2-3.6,1.2-6.9,3.2-9.8
			c2.1-3.1,5.2-5.8,9.1-8.2c9.7-5.3,21.8-8.1,36-8.3c14.3,0.2,26.4,2.9,36,8.2c4.1,2.4,7.3,5.1,9.4,8.2c1.8,3,2.8,6.2,3,9.8l0,224.7
			c-0.2,3.6-1.2,6.9-2.9,9.8c-2.3,3.1-5.4,5.8-9.4,8.2C743.8,729.1,731.7,731.9,717.4,732.1z M671.1,705.7c0.1,3.2,1.1,6.1,2.8,8.7
			c1.9,2.8,4.8,5.3,8.5,7.6c9.3,5.1,21.1,7.8,34.9,8c13.9-0.1,25.7-2.8,34.9-8c3.7-2.2,6.6-4.8,8.7-7.6c1.5-2.5,2.4-5.5,2.6-8.7
			l0-224.6c-0.1-3.2-1-6.1-2.6-8.7c-1.9-2.7-4.8-5.3-8.7-7.5c-9.2-5.1-21-7.8-34.9-8c-13.8,0.2-25.5,2.8-34.9,8
			c-3.7,2.2-6.5,4.8-8.4,7.6c-1.7,2.6-2.7,5.5-2.8,8.7L671.1,705.7z M717.4,722.1c-12.2-0.2-22.3-2.4-30.2-6.6
			c-2.8-1.6-4.8-3.3-5.9-4.9c-0.9-1.4-1.3-3-1.3-4.8V481.1c0-1.7,0.4-3.3,1.3-4.7c1.2-1.7,3.2-3.4,5.9-5c7.9-4.2,18-6.5,30.2-6.6
			c12.3,0.2,22.5,2.4,30.4,6.6c2.6,1.6,4.5,3.3,5.7,4.9c0.9,1.5,1.3,3,1.3,4.8v224.7c0,1.7-0.4,3.3-1.3,4.7c-1.2,1.7-3.1,3.4-5.7,5
			C739.9,719.7,729.7,721.9,717.4,722.1z M717.3,466.8c-11.8,0.2-21.6,2.3-29.1,6.4c-2.5,1.4-4.2,2.9-5.2,4.3c-0.6,1-1,2.2-1,3.6
			v224.7c0,1.4,0.3,2.5,1,3.6c1,1.4,2.7,2.8,5.2,4.3c7.5,4.1,17.3,6.2,29.1,6.3c11.9-0.1,21.8-2.3,29.4-6.4c2.3-1.4,4-2.9,5-4.3
			c0.6-1,1-2.2,1-3.6V481.1c0-1.4-0.3-2.5-1-3.6c-1-1.4-2.7-2.8-5-4.3C739.2,469.1,729.3,467,717.3,466.8z"/>
	</g>
	<g>
		<path d="M896.9,769.2V535.3h-53.5v-10.2h53.5v-12.7h-53.5v-10.2h53.5v-12.7h-53.5v-10h53.5v-61.8h10.2v351.6H896.9z M919.8,769.2
			V417.6h10v351.6H919.8z M942.5,769.2V417.6h10.2v351.6H942.5z"/>
		<path d="M953.7,770.3h-12.3V416.6h12.3V770.3z M943.5,768.2h8.1V418.7h-8.1V768.2z M930.8,770.3h-12V416.6h12V770.3z M920.8,768.2
			h7.9V418.7h-7.9V768.2z M908.1,770.3h-12.3V536.3h-53.5v-12.3h53.5v-10.7h-53.5v-12.3h53.5v-10.7h-53.5v-12h53.5v-61.8h12.3V770.3
			z M897.9,768.2h8.1V418.7h-8.1v61.8h-53.5v7.9h53.5v14.8h-53.5v8.1h53.5v14.8h-53.5v8.1h53.5V768.2z"/>
	</g>
</g>
<g>
	<g>
		<path d="M308.1,500.1c-5.7,2.5-10.7,3.5-15.1,2.9c-4.4-0.6-7.4-2.6-8.9-6c-1.3-3-1.3-7,0-12c1.3-5,4.5-10.9,9.4-17.7
			c8.5-11.4,18.8-22.3,31-32.7c0.1-0.1,0.2-0.2,0.1-0.3c0.1-0.1,0.3-0.2,0.4-0.3c0.1-0.1,0.2-0.2,0.4-0.3
			c-7.5-2.6-15.9-4.4-25.5-5.2c-6.2-0.6-12.3-1.5-18.2-2.7c-5.9-1.2-11.2-3.1-15.8-5.8c-4.7-2.7-8.2-6.7-10.6-12.1
			c-1.8-4.5-2.4-9.1-1.9-13.9c0.6-4.8,2.8-10.7,6.6-17.7c5.1-9.6,11.7-18.4,19.8-26.4c8.1-8,16.2-13.8,24.1-17.4
			c8-3.7,14.9-4.2,20.6-1.3c2.7,1.5,4.7,3.7,6,6.5c2.8,6.2,2.7,14.7-0.1,25.5c-2.8,10.8-7.9,20.9-15.2,30.5c-0.5,0.7-1,1.2-1.4,1.4
			c-0.6,0.3-1.1,0.2-1.7,0c-0.5-0.3-0.9-0.7-1.2-1.3c-0.4-0.9-0.5-1.8-0.3-2.8c0.1-1,0.6-1.8,1.3-2.5c1.2-0.8,2.3-1.8,3.6-2.9
			c1.2-1.1,2.1-1.8,2.5-2.4c2.5-4.2,5.1-9.5,7.5-16c2.5-6.5,3.9-12.1,4.3-16.8c0.3-4.7-0.3-8.6-1.7-11.7c-2-4.4-5.1-6.5-9.6-6.3
			c-4.4,0.2-8.8,1.3-13.2,3.2c-6.4,2.8-11.9,6.1-16.5,9.9c-10.6,9-19.2,19.1-25.7,30.4c-6.5,11.3-8.7,20.8-6.4,28.5
			c3.4,6.8,8.9,11.4,16.5,13.7c7.6,2.3,16,3.8,25,4.6c11.9,0.8,22.4,3.3,31.3,7.4c16.5-13.3,27.6-21.2,33.2-23.7
			c1.3-0.6,2-0.5,2.2,0.3c0.3,0.6,0.1,1.2-0.5,1.7c-6,2.7-16.8,10.4-32.5,23.1c3.6,2.5,6.4,5.8,8.3,10.1c1.2,2.7,2,5.9,2.5,9.6
			c0.8,11-2.7,21-10.6,29.9C324.4,490.1,316.3,496.4,308.1,500.1z M305.9,498.5c5-2.2,10.2-5.6,15.7-10.2c5.5-4.6,10.1-10,13.7-16.4
			c3.6-6.4,5.2-13.2,4.9-20.5c-0.4-2.4-1-4.5-1.8-6.3c-2.1-4.7-5.5-8.1-10.2-10.2C314.9,446,304,457.4,295.5,469
			c-4.6,6.5-7.5,11.9-8.9,16.4c-1.3,4.5-1.4,8-0.3,10.6C288.9,501.6,295.4,502.5,305.9,498.5z"/>
		<path d="M295.5,509.3c-1.1,0-2.2-0.1-3.3-0.2c-8.3-1.1-12.1-5.8-13.7-9.6c-1.9-4.3-2-9.6-0.3-16.1c1.5-5.8,5-12.3,10.4-19.8
			c6.9-9.3,15.1-18.4,24.4-27c-4.2-0.9-8.8-1.6-13.5-2c-6.4-0.6-12.8-1.6-18.8-2.8c-6.5-1.3-12.5-3.5-17.7-6.5
			c-5.8-3.3-10.2-8.3-13.2-14.9c-2.3-5.6-3.1-11.3-2.4-17.2c0.7-5.7,3.1-12.2,7.4-20c5.3-10,12.3-19.4,20.9-27.8
			c8.6-8.5,17.4-14.8,25.9-18.6c9.7-4.5,18.4-4.9,25.9-1.1l0.2,0.1c3.9,2.2,6.8,5.3,8.6,9.4c3.4,7.6,3.5,17.3,0.2,29.6
			c-3,11.5-8.5,22.4-16.2,32.6c-1.2,1.6-2.4,2.7-3.9,3.4c-2.3,1-4.7,1-6.9-0.1c-1.8-0.9-3.2-2.4-4.1-4.3c-0.9-1.9-1.1-4-0.8-6.2
			c0.4-2.4,1.5-4.5,3.2-6.1l0.5-0.4c1-0.7,2.1-1.6,3.2-2.6c0.9-0.7,1.3-1.2,1.5-1.4c2.2-3.8,4.5-8.7,6.8-14.5c2.3-5.9,3.6-11,4-15.2
			c0.2-3.5-0.2-6.5-1.2-8.7c-1.1-2.5-2.3-2.7-3.7-2.6c-3.6,0.2-7.3,1.1-11,2.7c-5.8,2.6-10.9,5.6-15.1,9
			c-9.9,8.4-18.1,18.1-24.2,28.7c-5.5,9.5-7.5,17.2-6,23.1c2.6,5,6.7,8.2,12.5,10c7.2,2.2,15.2,3.6,23.7,4.3c11,0.7,21,2.9,29.8,6.5
			c15.5-12.3,25.9-19.6,31.7-22.2c2.6-1.1,5-1.2,7-0.1c1.7,0.8,2.9,2.3,3.5,4.1c1,2.8,0.3,5.8-1.9,8.1l-0.8,0.9l-1.1,0.5
			c-3.3,1.5-10.4,5.8-25.5,17.8c1.8,2.1,3.3,4.5,4.5,7.2c1.4,3.2,2.4,7,3,11.3l0,0.3c1,12.7-3.1,24.3-12.1,34.5
			c-8.5,9.6-17.3,16.5-26.3,20.5h0C305.2,508.1,300.1,509.3,295.5,509.3z M328.8,442.4c-11.4,9.9-20.9,20.1-28.3,30.2
			c-4.1,5.8-6.8,10.7-7.9,14.5c-1.2,4.2-0.7,5.9-0.6,6.3c1.3,2.9,8.9,0.3,11.5-0.7c4.4-2,9.1-5.1,14.1-9.2c4.9-4.1,9-9,12.3-14.7
			c3-5.3,4.3-10.8,4.1-16.8c-0.3-1.7-0.7-3.2-1.3-4.5C331.8,445.5,330.5,443.8,328.8,442.4z"/>
	</g>
	<g>
		<path d="M377.9,499.5c-0.3,0.1-0.7-0.1-1.1-0.8c-2.5-14.3-3.4-28.7-2.7-43.1c0.1-2.1,0.1-4.1,0.1-6.1c-2.2-17-5.2-30-9.1-38.7
			c-0.6-1.3-1.1-2.3-1.5-3c-0.4-0.7-0.9-1.4-1.3-2.1c-0.3-0.4-0.6-0.8-0.9-1.4c-0.3-0.6-0.2-1.2,0.2-1.9c0.4-0.7,0.9-1.2,1.6-1.5
			c1-0.4,1.9-0.2,2.8,0.8c0.9,1,1.7,2.4,2.5,4.2c2.5,5.5,4.4,13.2,5.9,23.1c0.9-11.4,2.5-19.8,4.9-25.2c2.4-5.4,5.1-8.7,7.9-10
			c2.8-1.3,5.5-1,8,0.9c2.5,1.9,4.4,4.3,5.8,7.2l0.5,1.1c8.8-9.5,15.7-16.1,20.5-19.8c0.8-0.4,1.4-0.2,1.7,0.5
			c0.3,0.6,0,1.3-0.6,2.1c-2,1.7-4.8,4.4-8.6,8c-3.8,3.7-7.9,7.7-12.2,12.2c1.7,6.9,0.3,14.5-4.4,22.8c-3.3,4.7-6.4,7.7-9,8.9
			c-3,1.2-5.1,0.6-6.2-1.8c-1.5-3.1-0.4-7.6,3.3-13.7c3.6-5.7,8-11.3,13.4-16.9l-0.8-2.4c-0.9-2.1-2.2-3.9-3.9-5.3
			c-1.6-1.4-3.5-1.6-5.6-0.7c-3.3,1.8-5.8,5.1-7.6,10c-1.8,4.9-3,13.3-3.6,25.3c-0.3,6.2-0.4,12.6-0.4,19c1.2,11.9,2,22.7,2.3,32.6
			C380.1,493.6,379.5,498.8,377.9,499.5z M388.4,435c2.1-0.9,4.6-3.6,7.4-7.9c3.8-6.8,5.2-13,4.4-18.8
			c-11.5,12.6-16.6,21.3-15.1,26.1l0.2,0.4c0.3,0.2,0.4,0.4,0.4,0.4c0,0.1,0.1,0.1,0.2,0.2c0.1,0,0.2,0,0.4,0c0.2,0.1,0.6,0.1,1,0
			L388.4,435z"/>
		<path d="M377.8,505.8c-2,0-4.2-0.9-6-3.4l-0.8-1.1l-0.2-1.4c-2.5-14.7-3.5-29.7-2.7-44.5c0.1-1.8,0.1-3.6,0.1-5.4
			c-2.1-16.2-4.9-28.5-8.6-36.7c-0.6-1.4-1-2.1-1.2-2.5c-0.3-0.5-0.5-0.9-0.8-1.3c-0.6-0.8-1.2-1.7-1.6-2.7c-1-2.3-0.9-5,0.4-7.4
			c1-1.9,2.6-3.3,4.5-4.1c3.5-1.5,7.3-0.6,9.9,2.4c1,1.2,1.9,2.6,2.8,4.3c0.1-0.2,0.2-0.5,0.3-0.7c3.1-6.9,6.7-11.2,11-13.1
			c4.9-2.2,9.9-1.6,14.2,1.5c1.3,1,2.5,2,3.6,3.2c6.5-6.7,11.7-11.6,15.7-14.7l0.6-0.4l0.7-0.3c3.9-1.8,8.2-0.2,9.9,3.6
			c0.6,1.3,1.6,4.8-1.5,8.5l-0.7,0.7c-1.9,1.7-4.7,4.3-8.5,7.9c-3.1,3-6.4,6.2-9.8,9.7c0.9,7.4-1,15.4-5.6,23.8l-0.4,0.6
			c-4,5.7-7.8,9.3-11.6,10.9l-0.3,0.1c-2.9,1.1-5.4,1.2-7.5,0.7c0,2.2-0.1,4.5-0.1,6.8c1.2,11.8,2,22.8,2.3,32.7
			c0.4,12.6-0.3,19.4-5.5,21.7h0C379.6,505.5,378.7,505.8,377.8,505.8z M391.4,402.6c-1.6,1.2-2.9,3.3-4,6.3
			c-0.1,0.4-0.3,0.9-0.5,1.4c1.7-2.2,3.5-4.3,5.4-6.5C392,403.4,391.7,403,391.4,402.6z"/>
	</g>
	<g>
		<path d="M434.9,409c-2.1,0.9-4.2,1.1-6.3,0.5c-2.1-0.6-3.6-2-4.5-4.1c-1.1-2.8-1.5-5.8-1.2-9c0.3-3.3,0.8-6.3,1.5-9.2
			c-1.2-0.1-2.1-0.7-2.5-1.7c-0.5-1.1-0.5-2.2-0.1-3.3c0.5-1.1,1.7-2.4,3.6-4.2c0.1-0.6,0.2-1.1,0.3-1.7c0-0.5,0-0.9,0.2-1.2
			c0.2-0.3,0.7-0.7,1.6-1.1c0.7-0.3,1.5-0.4,2.4-0.4c0.9,0,1.4,0.3,1.6,0.7c0.1,0.1,0.1,0.3,0,0.5l0.1,0.2l-0.1,0.3l-0.1,0.3
			c1.7-0.1,3.1,0.4,4.3,1.4c1.2,1,2.3,2.1,3.2,3.4c3.7-1.6,7.7-3.8,12.2-6.4c4.4-2.6,7.7-5.2,9.8-7.7l0.5-0.5c0.4-0.2,0.8-0.2,1.3,0
			c0.4,0.2,0.7,0.4,0.8,0.7c0.2,0.4,0.1,0.9-0.4,1.4c-2.3,2.5-5.7,5.2-10.2,8c-4.5,2.8-8.8,5.2-12.9,7.1l0.5,1.1
			c2.5,5.5,2.9,10.7,1.4,15.5C440.3,404.5,438,407.6,434.9,409z M433.9,406.9c1.7-0.8,3.2-2.7,4.5-5.7c1.3-3,1.6-6.7,1.1-11
			c-0.5-2.3-1.2-4.3-1.9-6c-1,0.4-1.8,0.7-2.3,0.9c-0.5,0.2-0.9,0.3-1.2,0.4c-0.4,0.2-0.7,0.3-1,0.4c-0.2,0.1-0.6,0.2-1.3,0.3
			c-0.6,0.1-1.5,0.3-2.5,0.6c-0.6,3.3-0.9,6.7-0.9,10.2c-0.1,3.5,0.3,6.1,1.1,7.8C430.4,407,431.9,407.7,433.9,406.9z M436.2,381.6
			c-1.5-2.2-3.4-3.3-5.6-3.4l-1,5.8C431.6,383.5,433.8,382.7,436.2,381.6z"/>
		<path d="M431,416c-1.4,0-2.8-0.2-4.2-0.6c-3.8-1.1-6.7-3.7-8.4-7.5l-0.1-0.3c-1.4-3.6-1.9-7.5-1.6-11.7c0.2-2,0.4-4,0.7-5.9
			c-0.5-0.6-0.9-1.3-1.2-2c-1.2-2.7-1.2-5.6-0.1-8.3c0.7-1.5,1.7-3,3.4-4.7c0.1-1,0.5-2,1-2.9c1.1-2,3.1-3.1,4.4-3.7
			c1.6-0.7,3.3-1,5.1-0.9c3.2,0.2,5.1,1.6,6.1,2.9c1.2,0.5,2.3,1.1,3.3,2c0.2,0.2,0.5,0.4,0.7,0.6c2.4-1.2,4.9-2.6,7.5-4.2
			c3.8-2.3,6.6-4.4,8.3-6.4l1.1-1l0.7-0.7l0.9-0.4c1.9-0.9,4-0.9,6-0.2c2,0.8,3.5,2.2,4.3,4c1.1,2.6,0.7,5.5-1.3,7.9l-0.2,0.2
			c-2.7,3-6.5,6-11.6,9.1c-2.9,1.8-5.7,3.4-8.3,4.8c1.6,5.3,1.6,10.5,0.1,15.5c-2,6.6-5.5,11-10.3,13.1l0,0
			C435.3,415.6,433.2,416,431,416z"/>
	</g>
	<g>
		<path d="M489.5,407.1c-3.4,1.5-6.3,0-8.7-4.6c-1.2-2.7-2.1-6.7-2.8-12c-0.2-1.6-0.3-3.3-0.2-5c0.2-4-0.3-7.6-1.7-10.7
			c-0.9-2-2.2-3.5-3.8-4.5c-1.7-1-3.4-2-5.3-2.8c-1.6-0.6-3.2-1.4-4.5-2.2c-1.4-0.8-2.4-2-3.1-3.6c-0.3-0.7-0.6-1.8-0.9-3.2
			c-0.3-1.4-0.3-2.8-0.2-4.1c0.2-1.3,0.9-2.3,2.2-2.9c1-0.4,2-0.6,3-0.4c1,0.2,1.7,0.6,2,1.3l0.2,0.9c-0.5,4.1-0.4,7.1,0.3,8.8
			c0.5,1.1,1,2,1.6,2.5c0.6,0.5,1.5,1,2.7,1.5c0.9,0.5,2,1.1,3.5,2c3,2.1,5.1,4.6,6.4,7.6c1.9,4.3,2.8,8.8,2.8,13.8l0.1,0.2
			c0.5,4.5,1.2,7.9,2.3,10.2c1.4,3.1,3.2,4.1,5.4,2.9c3.4-1.5,7.2-6.5,11.2-15.1c4.1-8.5,7.7-17.3,10.8-26.2
			c3.1-8.9,4.8-15.4,5.2-19.5c0.2-1.1,0.5-1.7,0.9-1.9c0.6-0.3,1.1-0.1,1.5,0.6l0.1,1.5c-0.5,5.8-2.4,13.4-5.7,22.8
			c-3.3,9.4-7.3,18.3-12,26.8C498.1,400.1,493.6,405.2,489.5,407.1z"/>
		<path d="M487,413.8c-3.5,0-8.1-1.6-11.6-8.4l-0.2-0.3c-1.5-3.3-2.5-7.8-3.3-13.7c-0.2-2-0.3-4-0.2-6.1c0.2-3.1-0.2-5.7-1.2-7.9
			c-0.5-1.1-1.1-1.6-1.5-1.8c-1.4-0.9-2.8-1.6-4.4-2.4c-1.9-0.7-3.7-1.6-5.3-2.6c-2.5-1.5-4.4-3.6-5.6-6.4c-0.5-1.2-0.9-2.6-1.3-4.5
			c-0.4-2-0.5-4.1-0.3-6.1c0.4-3.5,2.5-6.3,5.8-7.8c2.1-0.9,4.2-1.2,6.4-0.9c3.1,0.5,5.6,2.3,6.7,4.9l0.3,0.7l0.5,2.6l-0.1,0.9
			c-0.5,4.2-0.1,5.5-0.1,5.5c0.1,0.1,0.1,0.2,0.2,0.3c0.1,0.1,0.4,0.2,0.7,0.3l0.6,0.3c1.1,0.6,2.4,1.3,3.9,2.3l0.2,0.2
			c3.9,2.7,6.7,6.1,8.5,10.1c2.1,4.7,3.2,9.8,3.3,15.2l0.1,0.6c0.3,2.9,0.7,4.9,1.1,6.3c1.4-1.6,3.4-4.7,6.1-10.2
			c4-8.3,7.5-16.9,10.5-25.5c3.6-10.5,4.7-15.6,4.9-18.1l0.1-0.4c0.7-4.1,2.8-5.8,4.5-6.6c3.3-1.5,6.9-0.4,9.1,2.7l1,1.3l0.4,3.7
			l0,0.5c-0.5,6.4-2.5,14.4-6,24.3c-3.4,9.6-7.6,19-12.5,27.7c-5.5,9.9-10.6,15.6-16.1,18.1l0,0C491.1,413.1,489.2,413.8,487,413.8z
			 M471.9,360.2L471.9,360.2L471.9,360.2z"/>
	</g>
	<g>
		<path d="M536.9,378.3l-0.4,0.2c-1,0.4-2.1,0.7-3.3,0.7c-2.3-0.3-4.2-1.1-5.6-2.2c-1.4-1.2-2.9-3.6-4.5-7.3l-0.7-1.5
			c-3.1-8.1-5.4-18.6-6.8-31.5c-1.4-12.9-2.4-25.8-3.1-38.7c-0.3-3.6-0.5-7.1-0.8-10.3c-8.4,5.1-16.2,9.2-23.3,12.4l-2.3,1
			c-4.5,1.8-8.3,2.7-11.6,2.8c-3.3,0-5.5-1.2-6.7-3.8l-0.1-0.2c0-0.3,0-0.7,0-1c0-0.3,0-0.6,0-0.9c0-0.2,0.1-0.4,0.4-0.6
			c0.3-0.1,0.6-0.1,1,0c0.4,0.2,0.8,0.6,1.1,1.3l0.2,0.9c1.2,2.7,4.9,2.8,11,0.2l3-1.3c6.5-2.9,14-7,22.5-12.3
			c1.5-0.8,3-1.7,4.5-2.5c-0.8-12.9-2-21.8-3.7-26.6l-0.8-1.7c-0.3-0.6-0.3-1.1-0.1-1.5c0.2-0.4,0.4-0.7,0.7-0.8
			c0.3-0.1,0.5-0.1,0.7-0.1c0.2,0.1,0.5,0.3,0.8,0.7c0.9,0.8,1.6,1.9,2.2,3.3l0.7,1.5c2.1,5.4,3.6,12.8,4.5,22.2
			c7.7-4.4,14.6-8,20.7-10.7l2.8-1.2c5.2-2.1,9.2-2.9,12.2-2.4c0.3,0,0.8,0.1,1.4,0.4c0.6,0.2,1.2,0.6,1.7,1c0.6,0.2,1,0.5,1.1,0.8
			c0,0.5-0.1,0.8-0.6,1c-0.8,0.2-1.7,0.3-2.8,0.3c-1.1,0.1-2.1,0-3.2-0.2c-1-0.2-1.6-0.5-1.7-0.8c-0.1-0.3,0.3-0.6,1.3-1.1
			c-1.1,0.3-1.8,0.4-2.1,0.4c-0.3,0.1-0.6,0.2-0.9,0.3c-0.3,0.1-0.7,0.2-1.1,0.4c-0.4,0.2-1,0.4-1.7,0.8c-6.9,3.1-15.8,8-26.5,14.9
			c0.8,8.3,1.5,17.1,2,26.3c0.6,12.1,1.5,23.5,2.7,34.1c1.2,10.6,2.8,18.9,5,24.9c1.4,3.1,2.9,5.2,4.6,6.4c0.6,0.2,1.2,0.3,1.7,0.3
			c0.9,0.1,1.8,0,2.6-0.4l0.2-0.1c4.1-1.8,8.2-6.5,12.3-14c4.1-7.5,7.7-15.3,10.7-23.2c3-8,4.8-14,5.3-18.1c0.2-0.6,0.6-1,1-1.2
			c0.3-0.1,0.6-0.1,0.9,0.1c0.3,0.2,0.6,0.4,0.7,0.7l0.1,0.7c-0.5,4.5-2.3,10.8-5.3,18.9c-3,8.1-6.7,16.1-11.2,23.8
			C546.1,371.3,541.5,376.3,536.9,378.3z"/>
		<path d="M532.8,385.4l-0.5-0.1c-3.5-0.5-6.5-1.7-8.8-3.7c-2.1-1.8-4.1-4.8-6.2-9.5l-0.8-1.8c-3.3-8.6-5.7-19.7-7.1-33
			c-1.4-12.9-2.5-26.1-3.1-39.1c0-0.1,0-0.2,0-0.4c-5.4,3-10.5,5.6-15.3,7.7l-2.3,1c-5.4,2.2-10,3.3-14.1,3.3
			c-5.7,0-10.2-2.7-12.4-7.5l-0.7-1.6l0.1-2.4c-0.3-3,1.3-5.7,4-6.9c1.8-0.8,3.8-0.8,5.8-0.1c1.3,0.5,2.9,1.5,4.1,3.7
			c0.8-0.2,1.9-0.5,3.6-1.2l2.8-1.3c6.2-2.8,13.5-6.8,21.8-11.9l1.3-0.7c-0.9-12.2-2.1-18.1-3-20.9l-0.6-1.4
			c-1.2-2.6-0.8-4.8-0.3-6.2c0.7-1.9,2.1-3.4,3.9-4.2c1.8-0.8,3.7-0.9,5.4-0.2c1.5,0.6,2.4,1.4,3.1,2.1c1.4,1.3,2.6,3.1,3.5,5.2
			l0.8,1.8c1.5,4,2.7,8.8,3.7,14.5c4.7-2.6,9.2-4.7,13.2-6.5l2.8-1.2c6.3-2.6,11.4-3.5,15.5-2.9c0.9,0.1,1.8,0.3,2.9,0.7
			c0.9,0.4,1.8,0.8,2.7,1.4c1.7,0.8,2.9,2.1,3.6,3.6l0.4,0.9l0.1,1c0.3,3.1-1.3,6-4.2,7.3l-0.5,0.2l-0.6,0.1
			c-1.1,0.3-2.4,0.4-3.8,0.5c-1.6,0.1-3.2,0-4.8-0.4c-0.4-0.1-1.2-0.2-2-0.6l-0.4,0.2c-5.9,2.6-13.5,6.8-22.5,12.4
			c0.7,7.3,1.2,14.9,1.7,22.8c0.6,12,1.5,23.3,2.7,33.8c1.1,9.9,2.6,17.8,4.6,23.3c0.5,1.2,1,2,1.4,2.5c1.7-1,4.8-3.7,8.9-11.1
			c4-7.2,7.4-14.8,10.3-22.4c2.8-7.5,4.5-13.1,4.9-16.8l0.1-0.7l0.3-0.7c1.1-2.7,2.9-4,4.2-4.6c2.1-0.9,4.4-0.8,6.5,0.3
			c1.5,0.9,2.7,2.1,3.4,3.6l0.4,0.9l0.2,2.4l-0.1,0.7c-0.6,5-2.5,11.7-5.7,20.3c-3.1,8.4-7,16.7-11.6,24.8
			c-5.2,9-10.6,14.7-16.5,17.3l-0.4,0.2c-1.7,0.8-3.7,1.2-5.7,1.2L532.8,385.4z M551.8,272.8l0.2,0.6c0.1-0.1,0.2-0.1,0.3-0.2
			l-0.2-0.1L551.8,272.8z M551.8,272.5c0.2,0.3,0.5,0.5,0.7,0.6c0.8-0.7,1.7-2,1.9-3.7l-3.2,1.5l0.5,1.4
			C551.7,272.4,551.7,272.4,551.8,272.5C551.8,272.5,551.9,272.5,551.8,272.5L551.8,272.5z M550.3,268.6l0.2,0.5l3.9-0.4
			c0-0.7-0.2-1.5-0.5-2.3c-0.4-0.8-0.9-1.4-1.3-1.9l-0.3,1.9l0.1-1.8C551.1,265.5,550.3,267.1,550.3,268.6z"/>
	</g>
	<g>
		<path d="M589.7,393.5l-1.1,0.5c-1.7,0.8-3.3,1.1-4.9,0.9c-1.9-0.4-3.2-1.5-4-3.3l-0.3-0.6c-1-3.3-0.6-8.4,1.1-15.4
			c1.7-6.9,4.1-14.6,7.3-23c-1.4-1.2-2.9-2.5-4.4-3.6c-3.5-2.5-6.9-5.3-10.1-8.4c-3.2-3.1-5.8-6.8-7.8-11.2
			c-0.6-1.3-1.1-2.6-1.5-3.9c-1.4-5.3-0.9-10.4,1.3-15.1c2.2-4.7,5.5-8,9.7-9.9c3.3-1.5,6.9-1.6,11-0.6c1.2,0.5,2.1,1.2,2.5,2.2
			c0.3,0.7,0.4,1.4,0.2,2.2c-0.2,0.8-0.6,1.3-1.3,1.6c-0.7,0.3-1.6,0.3-2.8,0c-3.6-1.1-6.6-1.1-9.2,0c-2.8,1.3-4.8,3.6-5.9,7
			c-1.1,3.4-1.1,7.2,0.1,11.4l1,2.3c1.8,4,4.1,7.4,7,10.4c2.9,2.9,6,5.7,9.1,8.2c0.9,0.8,1.8,1.6,2.9,2.5c4.3-10.9,8.8-21,13.6-30.4
			c4.8-9.3,8.6-15.9,11.5-19.7l0.5-0.5c0.3-0.1,0.6-0.1,0.9,0.1c0.3,0.2,0.6,0.4,0.7,0.7c0.2,0.4,0.1,0.9-0.2,1.3
			c-2.8,3.6-6.5,10.2-11.1,19.6c-4.6,9.4-9.2,19.7-13.6,30.6c3.4,2.7,6,6.1,7.8,10c2.3,5.2,3,10.9,1.9,17c-0.7,4.1-2.3,7.6-4.6,10.6
			C594.8,390,592.3,392.2,589.7,393.5z M588.7,391.2c2.2-1.2,4.3-3,6.4-5.7c2.1-2.6,3.4-5.8,4-9.4c0.3-4.6-0.2-8.5-1.7-11.7
			c-1-2.3-2.2-4.2-3.6-5.8c-1.4-1.6-2.7-2.9-3.8-3.9c-3.1,8-5.4,15.2-7,21.6c-1.6,6.4-1.9,11-1,13.8l0.3,0.6c0.4,1,1.1,1.5,1.9,1.4
			c1,0.2,2.2,0.1,3.6-0.6L588.7,391.2z"/>
		<path d="M584.5,401.1c-0.4,0-0.9,0-1.3-0.1l-0.6-0.1c-3.8-0.8-6.8-3.2-8.5-6.9l-0.6-1.4c-1.3-4.4-1-10.3,1-18.5
			c1.4-6,3.5-12.6,6-19.6c-0.3-0.2-0.6-0.4-0.9-0.7c-3.6-2.6-7.2-5.6-10.6-8.8c-3.8-3.6-6.9-8-9.2-13.2c-0.7-1.5-1.2-3-1.7-4.6
			L558,327c-1.7-6.7-1.1-13.2,1.7-19.3c2.9-6.1,7.2-10.4,12.8-12.9c4.6-2,9.6-2.3,15.1-0.9l0.6,0.2c3.5,1.3,5.2,3.7,5.9,5.5
			c0.9,1.9,1.1,4,0.6,6.1c-0.6,2.6-2.4,4.8-4.8,5.9c-2.1,0.9-4.4,1-7,0.3c-2.2-0.7-3.9-0.8-5-0.3c-0.8,0.4-1.8,1.1-2.6,3.3
			c-0.7,2.1-0.7,4.5,0.1,7.4l0.9,1.9c1.5,3.3,3.4,6.1,5.8,8.5c1.7,1.7,3.4,3.3,5.1,4.8c3.4-8.1,6.9-15.8,10.6-22.9
			c5-9.8,8.9-16.5,12-20.7l0.3-0.5l1.7-1.6l0.9-0.4c2.1-0.9,4.4-0.8,6.4,0.3c1.6,0.9,2.7,2.1,3.4,3.6c1,2.3,0.8,5-0.6,7.2l-0.3,0.4
			c-1.7,2.3-5,7.3-10.5,18.5c-4,8.1-8,17-11.8,26.3c2.5,2.7,4.6,5.7,6.1,9.1c2.8,6.4,3.6,13.3,2.4,20.5c-0.9,5.1-2.9,9.6-5.8,13.3
			c-2.9,3.7-6.1,6.5-9.5,8.2l-1.4,0.6C588.9,400.6,586.7,401.1,584.5,401.1z M592,367.5c-1.2,3.6-2.2,7-2.9,10.2
			c-0.7,2.8-1,5-1.2,6.5c0.8-0.7,1.6-1.5,2.4-2.6c1.4-1.7,2.2-3.8,2.7-6.3C593.1,372.3,592.8,369.7,592,367.5z"/>
	</g>
</g>
</svg>
